{
  "accessors": [
    {
      "bufferView": 2,
      "componentType": 5126,
      "count": 31924,
      "max": [
        12.311601638793945,
        5.5682759284973145,
        6.3800373077392578
      ],
      "min": [
        -14.711487770080566,
        -5.573732852935791,
        -9.2351665496826172
      ],
      "type": "VEC3"
    },
    {
      "bufferView": 2,
      "byteOffset": 383088,
      "componentType": 5126,
      "count": 31924,
      "max": [
        0.99967634677886963,
        0.99999725818634033,
        0.99968957901000977
      ],
      "min": [
        -0.99986511468887329,
        -1,
        -0.99993526935577393
      ],
      "type": "VEC3"
    },
    {
      "bufferView": 3,
      "componentType": 5126,
      "count": 31924,
      "max": [
        0.99999171495437622,
        0.99997234344482422,
        1,
        1
      ],
      "min": [
        -0.99602526426315308,
        -0.99993729591369629,
        -0.99999940395355225,
        1
      ],
      "type": "VEC4"
    },
    {
      "bufferView": 1,
      "componentType": 5126,
      "count": 31924,
      "max": [
        0.99364900588989258,
        0.99609375
      ],
      "min": [
        0.00390625,
        0.0039062495343387127
      ],
      "type": "VEC2"
    },
    {
      "bufferView": 0,
      "componentType": 5125,
      "count": 166524,
      "max": [
        31923
      ],
      "min": [
        0
      ],
      "type": "SCALAR"
    },
    {
      "bufferView": 2,
      "byteOffset": 766176,
      "componentType": 5126,
      "count": 10079,
      "max": [
        14.817920684814453,
        8.4424104690551758,
        2.6398153305053711
      ],
      "min": [
        -14.34273624420166,
        -5.3679056167602539,
        -2.6764740943908691
      ],
      "type": "VEC3"
    },
    {
      "bufferView": 2,
      "byteOffset": 887124,
      "componentType": 5126,
      "count": 10079,
      "max": [
        0.99759328365325928,
        0.99988937377929688,
        0.99984478950500488
      ],
      "min": [
        -0.99751901626586914,
        -0.99989056587219238,
        -0.99999821186065674
      ],
      "type": "VEC3"
    },
    {
      "bufferView": 3,
      "byteOffset": 510784,
      "componentType": 5126,
      "count": 10079,
      "max": [
        0.99988818168640137,
        0.99999868869781494,
        0.99998098611831665,
        1
      ],
      "min": [
        -0.90013021230697632,
        -0.99999547004699707,
        -1,
        1
      ],
      "type": "VEC4"
    },
    {
      "bufferView": 1,
      "byteOffset": 255392,
      "componentType": 5126,
      "count": 10079,
      "max": [
        0.97847527265548706,
        0.92900246381759644
      ],
      "min": [
        0.00390625,
        0.0039062495343387127
      ],
      "type": "VEC2"
    },
    {
      "bufferView": 0,
      "byteOffset": 666096,
      "componentType": 5125,
      "count": 54144,
      "max": [
        10078
      ],
      "min": [
        0
      ],
      "type": "SCALAR"
    }
  ],
  "asset": {
    "extras": {
      "author": "Kirill.Lokaichuk (https://sketchfab.com/Kirill.Lokaichuk)",
      "license": "CC-BY-4.0 (http://creativecommons.org/licenses/by/4.0/)",
      "source": "https://sketchfab.com/3d-models/banana-7fed2d5fbef14073935efbe8f4a73a42",
      "title": "Banana"
    },
    "generator": "Sketchfab-7.61.0",
    "version": "2.0"
  },
  "bufferViews": [
    {
      "buffer": 0,
      "byteLength": 882672,
      "byteOffset": 0,
      "name": "floatBufferViews",
      "target": 34963
    },
    {
      "buffer": 0,
      "byteLength": 336024,
      "byteOffset": 882672,
      "byteStride": 8,
      "name": "floatBufferViews",
      "target": 34962
    },
    {
      "buffer": 0,
      "byteLength": 1008072,
      "byteOffset": 1218696,
      "byteStride": 12,
      "name": "floatBufferViews",
      "target": 34962
    },
    {
      "buffer": 0,
      "byteLength": 672048,
      "byteOffset": 2226768,
      "byteStride": 16,
      "name": "floatBufferViews",
      "target": 34962
    }
  ],
  "buffers": [
    {
      "byteLength": 2898816,
      "uri": "scene.bin"
    }
  ],
  "images": [
    {
      "uri": "textures/ShekoladM_baseColor.png"
    },
    {
      "uri": "textures/ShekoladM_metallicRoughness.png"
    },
    {
      "uri": "textures/ShekoladM_normal.png"
    },
    {
      "uri": "textures/BananM_baseColor.png"
    },
    {
      "uri": "textures/BananM_metallicRoughness.png"
    }
  ],
  "materials": [
    {
      "doubleSided": true,
      "emissiveFactor": [
        0,
        0,
        0
      ],
      "name": "ShekoladM",
      "normalTexture": {
        "index": 2,
        "scale": 1,
        "texCoord": 0
      },
      "pbrMetallicRoughness": {
        "baseColorFactor": [
          1,
          1,
          1,
          1
        ],
        "baseColorTexture": {
          "index": 0,
          "texCoord": 0
        },
        "metallicFactor": 1,
        "metallicRoughnessTexture": {
          "index": 1,
          "texCoord": 0
        },
        "roughnessFactor": 1
      }
    },
    {
      "doubleSided": true,
      "emissiveFactor": [
        0,
        0,
        0
      ],
      "name": "BananM",
      "normalTexture": {
        "index": 2,
        "scale": 1,
        "texCoord": 0
      },
      "pbrMetallicRoughness": {
        "baseColorFactor": [
          1,
          1,
          1,
          1
        ],
        "baseColorTexture": {
          "index": 3,
          "texCoord": 0
        },
        "metallicFactor": 1,
        "metallicRoughnessTexture": {
          "index": 4,
          "texCoord": 0
        },
        "roughnessFactor": 1
      }
    }
  ],
  "meshes": [
    {
      "name": "ShekoladMP:ZBrush_defualt_group2_ShekoladM_0",
      "primitives": [
        {
          "attributes": {
            "NORMAL": 1,
            "POSITION": 0,
            "TANGENT": 2,
            "TEXCOORD_0": 3
          },
          "indices": 4,
          "material": 0,
          "mode": 4
        }
      ]
    },
    {
      "name": "BananMP:ZBrush_defualt_group1_BananM_0",
      "primitives": [
        {
          "attributes": {
            "NORMAL": 6,
            "POSITION": 5,
            "TANGENT": 7,
            "TEXCOORD_0": 8
          },
          "indices": 9,
          "material": 1,
          "mode": 4
        }
      ]
    }
  ],
  "nodes": [
    {
      "children": [
        1
      ],
      "name": "RootNode (gltf orientation matrix)",
      "rotation": [
        -0.70710678118654746,
        -0,
        -0,
        0.70710678118654757
      ]
    },
    {
      "children": [
        2
      ],
      "name": "RootNode (model correction matrix)"
    },
    {
      "children": [
        3
      ],
      "matrix": [
        1,
        0,
        0,
        0,
        0,
        0,
        1,
        0,
        0,
        -1,
        0,
        0,
        0,
        0,
        0,
        1
      ],
      "name": "8f4ce25f6d72488da6deafa4dd18c48a.fbx"
    },
    {
      "children": [
        4,
        6
      ],
      "name": "RootNode"
    },
    {
      "children": [
        5
      ],
      "name": "ShekoladMP:ZBrush_defualt_group2"
    },
    {
      "mesh": 0,
      "name": "ShekoladMP:ZBrush_defualt_group2_ShekoladM_0"
    },
    {
      "children": [
        7
      ],
      "name": "BananMP:ZBrush_defualt_group1"
    },
    {
      "mesh": 1,
      "name": "BananMP:ZBrush_defualt_group1_BananM_0"
    }
  ],
  "samplers": [
    {
      "magFilter": 9729,
      "minFilter": 9987,
      "wrapS": 10497,
      "wrapT": 10497
    }
  ],
  "scene": 0,
  "scenes": [
    {
      "name": "OSG_Scene",
      "nodes": [
        0
      ]
    }
  ],
  "textures": [
    {
      "sampler": 0,
      "source": 0
    },
    {
      "sampler": 0,
      "source": 1
    },
    {
      "sampler": 0,
      "source": 2
    },
    {
      "sampler": 0,
      "source": 3
    },
    {
      "sampler": 0,
      "source": 4
    }
  ]
}

